<?xml version="1.0" encoding="utf-8"?>
<!-- Generator: Adobe Illustrator 21.1.0, SVG Export Plug-In . SVG Version: 6.00 Build 0)  -->
<svg version="1.1" xmlns="http://www.w3.org/2000/svg" xmlns:xlink="http://www.w3.org/1999/xlink" x="0px" y="0px"
	 viewBox="0 0 320 94" style="enable-background:new 0 0 320 94;" xml:space="preserve">
<style type="text/css">
	.st0{display:none;}
	.st1{display:inline;}
	.st2{fill:#FFFFFE;}
	.st3{fill:#4AA241;}
	.st4{fill:#FFFFFF;}
	.st5{fill:#4E9D2D;}
	.st6{fill:#231F20;}
	.st7{fill:#808285;}
</style>
<g id="Layer_1" class="st0">
	<g class="st1">
		<path class="st2" d="M281.8,13.8c-0.3,1.5-0.4,5.3,1.8,4.8c2.9-0.6,2.5-0.9,4.1-2.3c1.1-0.9,3.7,1.6,0,5.7c-2,2.2-2.4,2.9-1.4,4.2
			c1.1,1.3,4,1.9,4,6c0,3.6,4.6,1,5.8-0.4c1.1-1.4,1.9-7.7,5-3.1c2.2,3.3-1.6,10.2,3,10.9c3.7,0.6,4.4,4.8,4.5,5.9l0,0.3
			c9.6-9.2,3.2-21.1,3-22.6c-0.4-2.6,1-1.6,2.7-0.1c-7.1-13.2-21-22.3-37.1-22.3c-2.8,0-5.5,0.3-8.1,0.8
			C277.6,1.8,283.3,5.1,281.8,13.8 M303.8,64.4c-2.6,1-3.7-0.6-5.6,1.2c-2.1,2.1,4.6,6.1-7.8,3.3c-5.5-1.3-4.8,4.8-11,1.6
			c-1.7-4.1-1.8-6.5-0.3-9.1c1.7-3,2.3-2,1.3-5.3c-0.4-1.3,0-1.9,0.7-3.7c0.7-1.8-0.2-4.3-2.7-4.1c-3.4,0.2-3,1.7-5,3.1
			c-1.4,0.9-3.7-3.8,1.2-8.1c2.7-2.3,3.3-3.1,2.4-4.9c-0.9-1.9-2.6-1.2-3.3-3.3c-0.5-1.6,0.3-4.7-2.1-5.5c-2.7-0.8-4.8,3-6.4,4.5
			c-1.8,1.7-3.8,4.9-4.7,2.4c-1.7-4.4,6.2-11,1.3-12.8c-4.6-1.6-6.1-6.5-6.1-6.5c-12.6,9.3-6.6,17.6-7.7,19s-3.1-1.8-4.8-0.2
			c-1.3,1.2-2.5,8.8,5.6,13.7c3.1,1.8,4.1,2.3,3.3,3.4c-0.6,0.9-3,0.1-3,2.2c0.1,4,6.6,2.8,7.8,7.9c1.1,4.7,21.3,7.6,21.3,7.6
			c0,0,0.1,0,0.3,0.1l1,0.5c0.3,1.2,1.5,4.1,4.3,5.6c4.6,2.4-0.3,1.2,0.4,2.9c0.3,0.9,3.6,3.1,9.5,1.7c8.1-3.4,14.9-9.2,19.5-16.6
			C308,61.2,307.7,62,303.8,64.4"/>
		<path class="st3" d="M278.5,71c-0.2,0-0.3-0.1-0.3-0.1c0,0-20.1-2.8-21.3-7.6c-1.2-5.1-7.7-3.9-7.8-7.9c0-2,2.4-1.3,3-2.2
			c0.7-1.1-0.3-1.6-3.3-3.4c-8.1-4.8-6.9-12.5-5.6-13.7c1.7-1.5,3.7,1.7,4.8,0.2c1.1-1.5-4.9-9.7,7.7-19c0,0,1.5,4.8,6.1,6.5
			c4.9,1.8-3,8.4-1.3,12.8c1,2.5,2.9-0.6,4.7-2.4c1.5-1.5,3.7-5.3,6.4-4.5c2.4,0.7,1.5,3.8,2.1,5.5c0.7,2.1,2.4,1.5,3.3,3.3
			c0.9,1.8,0.3,2.5-2.4,4.9c-4.9,4.3-2.6,9-1.2,8.1c2.1-1.4,1.7-2.9,5-3.1c2.5-0.1,3.4,2.3,2.7,4.1c-0.7,1.8-1.1,2.4-0.7,3.7
			c1,3.3,0.4,2.3-1.3,5.3c-1.5,2.6-1.4,5,0.3,9.1c6.2,3.2,5.5-2.9,11-1.6c12.4,2.8,5.6-1.2,7.8-3.3c1.9-1.9,3-0.2,5.6-1.2
			c3.8-2.4,4.2-3.2,9.2,0.7c4-6.5,6.4-14.1,6.4-22.3c0-7.1-1.8-13.8-4.9-19.7c-1.8-1.6-3.2-2.6-2.8,0c0.2,1.4,6.6,13.4-3,22.6l0-0.3
			c-0.1-1.1-0.8-5.4-4.5-5.9c-4.6-0.7-0.8-7.7-3-10.9c-3.1-4.6-3.9,1.7-5,3.1c-1.1,1.4-5.8,4-5.8,0.4c0-4.1-2.9-4.6-4-6
			c-1.1-1.3-0.6-2,1.4-4.2c3.6-4.1,1-6.6,0-5.7c-1.6,1.4-1.2,1.7-4.1,2.3c-2.2,0.5-2.1-3.3-1.8-4.8c1.5-8.7-4.3-12-12.6-12.2
			c-19.3,3.8-33.9,20.8-33.9,41.2c0,23.2,18.8,42,42,42c5.7,0,11.2-1.2,16.2-3.2c-5.9,1.4-9.2-0.9-9.5-1.7c-0.6-1.7,4.3-0.5-0.3-2.9
			c-2.8-1.4-4-4.3-4.3-5.6L278.5,71"/>
		<path class="st3" d="M280.8,72.3c0,0-27.6-10.7-28.6-37.9C252.3,34.3,254.9,55,280.8,72.3 M280.6,0.9c0.8,0.1,6.7,0.9,13,4.9
			c2.3,2.2,5.6,7.6,0.5,18.6c0,0,6.5-8.8,4.9-14.2c5.5,5.5,10.1,14.2,10.3,28.1C309.4,38.2,315.5,3.6,280.6,0.9 M308.3,69.6
			c-2.1,1.3-5.5,4.3-11.1,2.5c0,0,2.2,1.7,5.7,1.6c-4.5,2.3-9.4,2.9-17,0.9c0,0,15.6,9.2,26.5-8.4C312.3,66.3,309.6,68.8,308.3,69.6
			"/>
		<path d="M14,32.5c0,3,0.6,3.9,2.7,3.9v0.8H7.8v-0.8c1.8,0,2.9-0.5,2.9-4V13.2H7c-3.4,0-4.9,1-5.1,3.6H1.1V11h0.7
			c0.3,0.3,0.8,0.5,1.4,0.7c0.6,0.1,1.4,0.2,2.4,0.2h13.2c2.2,0,3.2-0.3,4-0.9h0.8v5.8h-0.5c-0.5-2.1-1.3-3.6-5.3-3.6H14V32.5
			 M41.1,33.4c0,2.4,0.4,3,2.5,3v0.8h-8.1v-0.8c2.1,0,2.6-0.5,2.6-2.5v-7.7c0-2.1-1.2-3.4-3.1-3.4c-1.8,0-3,0.8-4.5,2.9v8.5
			c0,1.6,0.7,2.1,2.6,2.1v0.8h-8.4v-0.8c2.3,0,2.8-0.5,2.8-3V13.1c0-2-0.6-2.3-2.8-2.3V10l5-0.5h0.7v14.7c2-2.3,3.4-3.1,5.4-3.1
			c2.6,0,5.2,1.7,5.2,5.4L41.1,33.4 M56.9,26.9c0.1-3.4-2.2-4.8-4.2-4.8c-2.6,0-4.1,1.9-4.3,4.8H56.9z M48.4,27.6
			c-0.1,7,4.1,8.8,6.2,8.8c2.2,0,3.3-0.7,5.5-3.3v1.1c-1.9,2.4-3.7,3.3-6.4,3.3c-4.9,0-8.4-3.4-8.4-8.1c0-4.7,3.4-8.4,7.8-8.4
			c3.6,0,7,2.9,6.7,6.5L48.4,27.6L48.4,27.6z M100.3,46.6h-1.2L70.9,11.9h-0.1v28c0,4,1.6,5.5,5.2,5.5v1.2H63.9v-1.2
			c3.3,0,4.9-1,4.9-6.8V15.2c0-4.5-1.2-7-5.9-7.4V6.6h10.2l25,31.1h0.1V14.4c0-5.2-1.4-6.6-4.9-6.6V6.6h12.1v1.2
			c-3.9,0-5.2,1.6-5.2,6.3L100.3,46.6 M137.1,21.8h8.6v1.8h-8.6v15.9c0,3.4,1.7,5.2,4.5,5.2c1.8,0,3.1-0.7,4.6-2.4l0.8,0.9
			c-2.2,2.7-4.7,4.1-7.5,4.1c-4.2,0-7.1-2.9-7.1-7.2V23.6h-4.7v-1.2c3.3-1.7,6.1-4.7,8.2-8.9h1.2L137.1,21.8 M173.8,41.9
			c0,2.7,0.9,3.5,4.2,3.5v1.2l-9,0.5v-4.5h-0.1c-2.4,3.2-5.3,4.8-8.6,4.8c-4.9,0-8.1-3.7-8.1-8.3V26.4c0-2.4-0.8-3.3-4.4-3.3V22
			l7.9-0.8h1.2v17.6c0,3.5,2.2,5.6,5.6,5.6c2.4,0,4.5-1.3,6.6-4V27.1c0-3.4-0.6-3.8-4.8-3.9V22l8.4-0.8h1.2L173.8,41.9 M189.1,41.9
			c0,2.7,0.8,3.5,4.1,3.5v1.2h-13v-1.2c3.8,0,4.2-1,4.2-4.7V27.2c0-3.6-0.9-4-5.1-4V22l8.6-0.8h1.2v5.4c4.6-4,6.8-5.4,8.4-5.4
			c1.4,0,3.3,0.8,4.5,2l-1.9,4.4c-2-1.1-4.2-2.2-5.9-2.2c-1.6,0-3,0.8-5.2,3L189.1,41.9 M220.9,30.3c0.2-5.4-3.5-7.7-6.6-7.7
			c-4.1,0-6.6,3.1-6.8,7.7H220.9z M207.4,31.5c-0.1,11.1,6.5,13.9,9.8,13.9c3.4,0,5.2-1.2,8.7-5.2V42c-3,3.8-5.9,5.3-10.2,5.3
			c-7.7,0-13.3-5.4-13.3-12.8s5.4-13.3,12.4-13.3c5.7,0,11,4.6,10.7,10.3H207.4L207.4,31.5z M25.9,56.4c-1.5-5.6-4.5-8.1-9.7-8.1
			C9,48.3,5.1,54.1,5.1,61.7c0,9,4.6,14.9,11.4,14.9c4.7,0,8.2-2.2,10.4-6.6l0.8,0.7c-2,4.7-6.7,7.7-12.5,7.7
			c-7.2,0-14.7-4.9-14.7-14.9c0-9.5,6.5-16.5,15.4-16.5c3.8,0,6.6,1.3,8.3,1.3c0.8,0,1.3-0.3,1.6-0.9h0.8v8.9L25.9,56.4 M39.7,59.8
			c-3.9,0-6.3,3.4-6.3,8.8c0,4.8,2,8.7,6.3,8.7c4.4,0,6.3-4.2,6.3-8.7C46,63.9,44,59.8,39.7,59.8L39.7,59.8z M39.7,78.3
			c-5.8,0-10.1-4.2-10.1-9.8c0-5.6,4.3-9.8,10.1-9.8s10.1,4.2,10.1,9.8C49.9,74.2,45.5,78.3,39.7,78.3L39.7,78.3z M71.3,73.7
			c0,2.4,0.5,3.1,3.1,3.1v0.9h-9.9v-0.9c2.5,0,3.2-0.6,3.2-2.3v-9.7c0-3-2.1-4.2-4.1-4.2c-1.8,0-3.4,1.1-5.3,3.6v9
			c0,2.8,0.4,3.5,3.1,3.5v0.9h-9.8v-0.9c2.5,0,3.1-0.2,3.1-3.5V62.9c0-2.2-0.6-2.7-3.1-2.7v-0.9l5.7-0.6h0.9v3.7
			c2.2-2.5,4.3-3.7,6.7-3.7c3.1,0,6.3,2.2,6.3,6.6L71.3,73.7 M86.6,64.5c-0.4-3.1-2.4-4.6-4.6-4.6c-1.8,0-3.1,1-3.1,2.5
			c0,4.7,9.7,3.4,9.7,10.3c0,3.1-2.7,5.7-5.8,5.7c-2,0-3.8-1.4-4.7-1.4c-0.7,0-1.2,0.6-1.2,1.3H76v-6.3h0.9c0.8,3.9,3.7,5.4,5.9,5.4
			c1.8,0,3.2-1.4,3.2-3.2c0-5.2-9.8-3.8-9.8-10c0-2.9,2.6-5.3,5.6-5.3c1.9,0,2.5,0.9,3.8,0.9c0.5,0,0.8-0.3,1.1-0.9h0.9v5.7
			L86.6,64.5 M104.3,65.6c0.2-4.1-2.6-5.7-5-5.7c-3.1,0-4.9,2.3-5.1,5.7H104.3z M94.3,66.5c-0.1,8.3,4.9,10.4,7.4,10.4
			c2.6,0,3.9-0.9,6.5-3.9v1.4c-2.2,2.9-4.4,4-7.6,4c-5.8,0-10-4-10-9.6c0-5.6,4.1-10,9.3-10c4.3,0,8.2,3.4,8,7.7L94.3,66.5
			L94.3,66.5z M117,74.3c0,2,0.6,2.6,3.1,2.6v0.9h-9.8v-0.9c2.8,0,3.1-0.7,3.1-3.5V63.3c0-2.7-0.7-3-3.8-3v-0.9l6.5-0.6h0.9v4
			c3.4-3,5.1-4,6.3-4c1,0,2.4,0.6,3.4,1.5l-1.4,3.3c-1.5-0.8-3.1-1.6-4.4-1.6c-1.2,0-2.2,0.6-3.9,2.2L117,74.3 M139.1,73.3l3.6-9.3
			c0.9-2.4,0.9-3.5-1.8-3.7v-0.9h6.8v0.9c-2.1,0.2-2.7,0.7-3.6,2.7l-5.9,15.3h-0.9l-5.9-14.5c-1.3-3-1.7-3.3-3.9-3.4v-0.9h8.9v0.9
			c-1.8,0.2-2.2,1.1-1.4,3.2L139.1,73.3 M184.4,73.7c0,2.4,0.5,3.1,3.1,3.1v0.9h-9.9v-0.9c2.5,0,3.2-0.6,3.2-2.3v-9.7
			c0-3-2.1-4.2-4.1-4.2c-1.8,0-3.4,1.1-5.3,3.6v9c0,2.8,0.4,3.5,3.1,3.5v0.9h-9.8v-0.9c2.5,0,3.1-0.2,3.1-3.5V62.9
			c0-2.2-0.6-2.7-3.1-2.7v-0.9l5.7-0.6h0.9v3.7c2.2-2.5,4.3-3.7,6.7-3.7c3.1,0,6.3,2.2,6.3,6.6L184.4,73.7 M205,65.3h-0.9
			c-0.8-3.3-3.1-5.5-6.2-5.5c-3.6,0-6.2,3.1-6.2,7.7c0,5.1,3.2,9.3,6.9,9.3c2.2,0,5-1.2,6.9-3.9v1.4c-2,2.7-4.8,4.1-8.1,4.1
			c-5.5,0-9.3-3.8-9.3-9.3c0-5.7,4.3-10.2,9.5-10.2c2.8,0,4.3,1,5.2,1c0.5,0,0.9-0.4,1.3-1h0.9L205,65.3 M218.2,73.5l3.2-9.8
			c0.7-2.2,0.6-3.4-1.5-3.5v-0.9h6.5v0.9c-2,0-3.2,1.3-4.2,4.3l-7.4,21.8c-1.5,4.3-3.9,6.7-6.1,6.7c-0.8,0-1.4-0.2-2.3-0.8l1.2-3.2
			c0.7,0.3,1.1,0.4,1.8,0.4c2.2,0,3.6-1.3,4.7-4.5l2.4-6.7L210,63c-0.9-2.1-1.6-2.7-3.8-2.8v-0.9h8.9v0.9c-1.4,0.2-2,1.3-1.3,2.8
			L218.2,73.5 M119.6,41.6c-1,2.1-3.6,3.1-5.1,3.1c-2,0-3.8-2-3.8-4.5c0-5,4.2-4.9,8.9-7L119.6,41.6L119.6,41.6z M124.3,41.2l0-10.9
			c0-6.7-4.8-9.1-8.9-9.1c-4.5,0-8.1,3-9.1,7.6l1.3,0.3c1-3.6,3.8-5.3,6.6-5.3c3.5,0,5.5,2.5,5.5,6v1.8c-4,2.4-13.7,2.1-13.7,9.1
			c0,3.6,3.2,6.5,7,6.5c2.6,0,4.5-1,6.9-3.7l0,0v3h8.7v-1.2C125,45.4,124.3,44.4,124.3,41.2L124.3,41.2z M157.6,74
			c-0.7,1.6-2.7,2.3-3.8,2.3c-1.5,0-2.8-1.5-2.8-3.4c0-3.7,3.1-3.7,6.6-5.2L157.6,74L157.6,74z M161.1,73.7l0-8.1
			c0-5-3.6-6.7-6.6-6.7c-3.3,0-6,2.2-6.8,5.6l0.9,0.3c0.8-2.6,2.8-3.9,4.9-3.9c2.6,0,4.1,1.9,4.1,4.4v1.3c-3,1.8-10.1,1.6-10.1,6.8
			c0,2.7,2.4,4.9,5.2,4.9c1.9,0,3.3-0.8,5.1-2.7l0,0v2.2h6.4v-0.9C161.6,76.9,161.1,76.1,161.1,73.7L161.1,73.7z"/>
	</g>
</g>
<g id="Layer_2">
	<g>
		<path class="st4" d="M289,11.3c-0.2,1.2-0.3,4.2,1.5,3.8c2.3-0.5,2-0.7,3.3-1.9c0.8-0.7,2.9,1.3,0,4.5c-1.6,1.8-1.9,2.3-1.1,3.3
			c0.9,1.1,3.2,1.5,3.2,4.7c0,2.9,3.7,0.8,4.6-0.3c0.9-1.1,1.5-6.1,4-2.5c1.8,2.6-1.2,8.1,2.4,8.7c3,0.4,3.5,3.8,3.6,4.7
			c0,0.1,0,0.2,0,0.2c7.6-7.3,2.5-16.8,2.4-17.9c-0.3-2.1,0.8-1.3,2.1,0C309.3,8.2,298.2,1,285.5,1c-2.2,0-4.4,0.2-6.4,0.6
			C285.6,1.8,290.2,4.4,289,11.3L289,11.3z"/>
		<path class="st4" d="M306.5,51.5c-2,0.8-2.9-0.5-4.5,1c-1.7,1.6,3.7,4.8-6.2,2.6c-4.4-1-3.8,3.8-8.7,1.3c-1.4-3.3-1.4-5.2-0.2-7.2
			c1.4-2.4,1.8-1.6,1-4.2c-0.3-1,0-1.5,0.5-2.9c0.5-1.4-0.2-3.4-2.2-3.3c-2.7,0.1-2.4,1.4-4,2.5c-1.1,0.7-3-3,0.9-6.4
			c2.1-1.8,2.6-2.4,1.9-3.9c-0.7-1.5-2.1-0.9-2.6-2.6c-0.4-1.3,0.2-3.8-1.6-4.3c-2.1-0.7-3.8,2.4-5.1,3.6c-1.4,1.4-3,3.9-3.8,1.9
			c-1.4-3.5,4.9-8.8,1-10.2c-3.6-1.3-4.8-5.1-4.8-5.1c-10,7.4-5.3,14-6.1,15.1c-0.8,1.2-2.4-1.4-3.8-0.2c-1,0.9-2,7,4.4,10.9
			c2.4,1.5,3.2,1.8,2.6,2.7c-0.5,0.7-2.4,0.1-2.4,1.7c0.1,3.2,5.2,2.3,6.2,6.3c0.9,3.8,16.9,6,16.9,6c0,0,0.1,0,0.2,0l0.8,0.4
			c0.2,1,1.2,3.3,3.4,4.4c3.7,1.9-0.2,1,0.3,2.3c0.3,0.7,2.9,2.4,7.5,1.4c6.4-2.7,11.8-7.3,15.5-13.2
			C309.8,49,309.5,49.6,306.5,51.5L306.5,51.5z"/>
		<path class="st5" d="M286.3,56.7c-0.1,0-0.2-0.1-0.2,0c0,0-16-2.3-16.9-6c-0.9-4-6.1-3.1-6.2-6.3c0-1.6,1.9-1,2.4-1.7
			c0.6-0.9-0.2-1.3-2.6-2.7c-6.4-3.9-5.5-9.9-4.4-10.9c1.3-1.2,3,1.3,3.8,0.2c0.8-1.2-3.9-7.7,6.1-15.1c0,0,1.2,3.8,4.8,5.1
			c3.9,1.4-2.4,6.6-1,10.2c0.8,2,2.3-0.5,3.8-1.9c1.2-1.2,2.9-4.2,5.1-3.6c1.9,0.6,1.2,3,1.6,4.3c0.5,1.7,1.9,1.2,2.6,2.6
			c0.7,1.4,0.2,2-1.9,3.9c-3.9,3.4-2,7.1-0.9,6.4c1.6-1.1,1.3-2.3,4-2.5c2-0.1,2.7,1.9,2.2,3.3c-0.5,1.4-0.9,1.9-0.5,2.9
			c0.8,2.6,0.3,1.8-1,4.2c-1.2,2-1.1,4,0.2,7.2c4.9,2.5,4.3-2.3,8.7-1.3c9.8,2.2,4.5-1,6.2-2.6c1.5-1.5,2.4-0.2,4.5-1
			c3-1.9,3.3-2.5,7.3,0.6c3.2-5.1,5.1-11.2,5.1-17.7c0-5.7-1.4-11-3.9-15.6c-1.4-1.3-2.5-2.1-2.2,0c0.2,1.2,5.3,10.6-2.4,17.9
			c0,0,0-0.1,0-0.2c-0.1-0.9-0.6-4.3-3.6-4.7c-3.6-0.5-0.6-6.1-2.4-8.7c-2.5-3.6-3.1,1.4-4,2.5c-0.9,1.1-4.6,3.2-4.6,0.3
			c0-3.3-2.3-3.7-3.2-4.7c-0.8-1-0.5-1.6,1.1-3.3c2.9-3.2,0.8-5.3,0-4.5c-1.3,1.1-1,1.4-3.3,1.9c-1.7,0.4-1.7-2.6-1.5-3.8
			c1.2-6.9-3.4-9.5-10-9.7c-15.4,3-27,16.5-27,32.8c0,18.5,15,33.4,33.4,33.4c4.6,0,8.9-0.9,12.9-2.6c-4.7,1.1-7.3-0.7-7.5-1.4
			c-0.5-1.3,3.4-0.4-0.3-2.3c-2.2-1.1-3.2-3.4-3.4-4.4L286.3,56.7L286.3,56.7z"/>
		<path class="st5" d="M288.2,57.8c0,0-22-8.5-22.7-30.1C265.5,27.6,267.6,44,288.2,57.8L288.2,57.8z"/>
		<path class="st5" d="M288,1.1c0.6,0.1,5.4,0.7,10.4,3.9c1.9,1.7,4.5,6,0.4,14.8c0,0,5.2-7,3.9-11.3c4.4,4.4,8,11.3,8.2,22.3
			C310.9,30.7,315.7,3.2,288,1.1L288,1.1z"/>
		<path class="st5" d="M310,55.7c-1.7,1-4.4,3.4-8.8,2c0,0,1.7,1.3,4.5,1.3c-3.6,1.8-7.4,2.3-13.6,0.8c0,0,12.4,7.3,21-6.7
			C313.2,53,311,55,310,55.7L310,55.7z"/>
		<path class="st6" d="M76.1,26.2c0,2.4,0.5,3.1,2.2,3.1v0.6h-7.1v-0.6c1.4,0,2.3-0.4,2.3-3.2V10.8h-2.9c-2.7,0-3.9,0.8-4.1,2.9
			h-0.6V9.1h0.6c0.3,0.2,0.6,0.4,1.1,0.6c0.5,0.1,1.1,0.2,1.9,0.2h10.5c1.7,0,2.6-0.2,3.2-0.7h0.6v4.6h-0.4c-0.4-1.7-1-2.9-4.2-2.9
			h-3V26.2L76.1,26.2z"/>
		<path class="st6" d="M97.7,26.9c0,1.9,0.3,2.4,2,2.4v0.6h-6.4v-0.6c1.7,0,2.1-0.4,2.1-2v-6.1c0-1.6-1-2.7-2.5-2.7
			c-1.4,0-2.4,0.7-3.6,2.3v6.8c0,1.3,0.5,1.7,2.1,1.7v0.6h-6.6v-0.6c1.9,0,2.2-0.4,2.2-2.4V10.7c0-1.6-0.5-1.9-2.2-1.9V8.3l4-0.4
			h0.6v11.7c1.6-1.8,2.7-2.5,4.3-2.5c2.1,0,4.1,1.4,4.1,4.3V26.9L97.7,26.9z"/>
		<path class="st6" d="M110.2,21.7c0.1-2.7-1.7-3.8-3.3-3.8c-2.1,0-3.3,1.5-3.4,3.8H110.2L110.2,21.7z M103.5,22.3
			c-0.1,5.6,3.2,7,4.9,7c1.7,0,2.6-0.6,4.4-2.6v0.9c-1.5,1.9-2.9,2.7-5.1,2.7c-3.9,0-6.7-2.7-6.7-6.4c0-3.7,2.7-6.7,6.2-6.7
			c2.9,0,5.5,2.3,5.4,5.2H103.5L103.5,22.3z"/>
		<path class="st6" d="M144.7,37.3h-0.9L121.4,9.8h-0.1V32c0,3.2,1.3,4.4,4.2,4.4v0.9h-9.6v-0.9c2.7,0,3.9-0.8,3.9-5.4V12.4
			c0-3.5-0.9-5.5-4.7-5.9V5.6h8.1L143,30.3h0.1V11.7c0-4.2-1.1-5.2-3.9-5.2V5.6h9.6v0.9c-3.1,0-4.1,1.3-4.1,5V37.3L144.7,37.3z"/>
		<path class="st6" d="M174,17.7h6.8v1.4H174v12.6c0,2.7,1.4,4.1,3.5,4.1c1.4,0,2.5-0.6,3.7-1.9l0.6,0.7c-1.7,2.2-3.7,3.3-5.9,3.3
			c-3.3,0-5.7-2.3-5.7-5.7V19.1h-3.7v-0.9c2.7-1.3,4.9-3.7,6.5-7.1h0.9V17.7L174,17.7z"/>
		<path class="st6" d="M203.1,33.6c0,2.2,0.7,2.8,3.4,2.8v0.9l-7.1,0.4v-3.6h-0.1c-1.9,2.5-4.2,3.8-6.9,3.8c-3.9,0-6.4-2.9-6.4-6.6
			v-10c0-1.9-0.7-2.6-3.5-2.6v-0.9l6.3-0.6h0.9v14c0,2.8,1.8,4.4,4.4,4.4c1.9,0,3.6-1.1,5.2-3.2V21.8c0-2.7-0.4-3-3.8-3.1v-0.9
			l6.6-0.6h0.9V33.6L203.1,33.6z"/>
		<path class="st6" d="M215.3,33.6c0,2.2,0.7,2.8,3.3,2.8v0.9h-10.4v-0.9c3,0,3.3-0.8,3.3-3.8V21.9c0-2.9-0.7-3.2-4-3.2v-0.9
			l6.9-0.6h0.9v4.3c3.7-3.2,5.4-4.3,6.7-4.3c1.1,0,2.6,0.7,3.6,1.6l-1.5,3.5c-1.6-0.9-3.3-1.7-4.7-1.7c-1.3,0-2.4,0.7-4.2,2.4V33.6
			L215.3,33.6z"/>
		<path class="st6" d="M240.5,24.4c0.2-4.3-2.8-6.1-5.3-6.1c-3.3,0-5.2,2.4-5.4,6.1H240.5L240.5,24.4z M229.9,25.4
			c-0.1,8.8,5.2,11,7.8,11c2.7,0,4.1-0.9,6.9-4.1v1.4c-2.4,3-4.7,4.2-8.1,4.2c-6.2,0-10.6-4.3-10.6-10.2c0-5.9,4.3-10.6,9.9-10.6
			c4.5,0,8.8,3.7,8.5,8.2H229.9L229.9,25.4z"/>
		<path class="st6" d="M85.6,45.1c-1.2-4.5-3.6-6.4-7.7-6.4c-5.7,0-8.8,4.6-8.8,10.7c0,7.1,3.7,11.8,9,11.8c3.7,0,6.5-1.7,8.3-5.2
			l0.6,0.6c-1.6,3.8-5.3,6.1-9.9,6.1c-5.7,0-11.7-3.9-11.7-11.8c0-7.5,5.2-13.1,12.3-13.1c3,0,5.2,1,6.6,1c0.6,0,1-0.3,1.3-0.7h0.7
			v7.1H85.6L85.6,45.1z"/>
		<path class="st6" d="M96.6,47.9c-3.1,0-5,2.7-5,7c0,3.8,1.6,6.9,5,6.9c3.5,0,5-3.4,5-6.9C101.5,51.1,100,47.9,96.6,47.9L96.6,47.9
			z M96.6,62.6c-4.6,0-8-3.3-8-7.8c0-4.5,3.4-7.8,8-7.8c4.6,0,8,3.3,8,7.8C104.6,59.3,101.2,62.6,96.6,62.6L96.6,62.6z"/>
		<path class="st6" d="M121.7,58.9c0,1.9,0.4,2.5,2.5,2.5v0.7h-7.8v-0.7c2,0,2.5-0.5,2.5-1.8v-7.7c0-2.4-1.7-3.4-3.3-3.4
			c-1.5,0-2.7,0.9-4.2,2.9v7.2c0,2.2,0.3,2.8,2.5,2.8v0.7h-7.8v-0.7c1.9,0,2.4-0.2,2.4-2.8v-8.3c0-1.8-0.5-2.2-2.4-2.2v-0.7l4.6-0.5
			h0.7V50c1.7-2,3.4-2.9,5.3-2.9c2.4,0,5,1.7,5,5.3V58.9L121.7,58.9z"/>
		<path class="st6" d="M133.8,51.6c-0.3-2.4-1.9-3.7-3.7-3.7c-1.5,0-2.4,0.8-2.4,2c0,3.7,7.7,2.7,7.7,8.2c0,2.4-2.1,4.5-4.6,4.5
			c-1.6,0-3-1.1-3.7-1.1c-0.5,0-0.9,0.5-1,1h-0.7v-5h0.7c0.6,3.1,2.9,4.3,4.7,4.3c1.5,0,2.6-1.1,2.6-2.5c0-4.1-7.8-3-7.8-8
			c0-2.3,2-4.2,4.5-4.2c1.5,0,2,0.7,3,0.7c0.4,0,0.7-0.2,0.9-0.7h0.7v4.5H133.8L133.8,51.6z"/>
		<path class="st6" d="M147.9,52.5c0.1-3.2-2.1-4.6-3.9-4.6c-2.4,0-3.9,1.8-4.1,4.6H147.9L147.9,52.5z M139.9,53.2
			c-0.1,6.6,3.9,8.3,5.8,8.3c2,0,3.1-0.7,5.2-3.1v1.1c-1.8,2.3-3.5,3.2-6.1,3.2c-4.6,0-7.9-3.2-7.9-7.6c0-4.4,3.2-7.9,7.4-7.9
			c3.4,0,6.6,2.7,6.3,6.1H139.9L139.9,53.2z"/>
		<path class="st6" d="M158,59.3c0,1.6,0.5,2.1,2.4,2.1v0.7h-7.8v-0.7c2.2,0,2.5-0.6,2.5-2.8v-8c0-2.2-0.5-2.4-3-2.4v-0.7l5.1-0.5
			h0.7v3.2c2.7-2.4,4-3.2,5-3.2c0.8,0,1.9,0.5,2.7,1.2l-1.1,2.6c-1.2-0.7-2.5-1.3-3.5-1.3c-1,0-1.8,0.5-3.1,1.8V59.3L158,59.3z"/>
		<path class="st6" d="M175.5,58.6l2.9-7.4c0.7-1.9,0.7-2.8-1.5-2.9v-0.7h5.4v0.7c-1.7,0.2-2.1,0.5-2.8,2.1l-4.7,12.2h-0.7
			l-4.7-11.5c-1-2.4-1.4-2.7-3.1-2.7v-0.7h7.1v0.7c-1.4,0.1-1.8,0.9-1.1,2.5L175.5,58.6L175.5,58.6z"/>
		<path class="st6" d="M211.6,58.9c0,1.9,0.4,2.5,2.5,2.5v0.7h-7.8v-0.7c2,0,2.5-0.5,2.5-1.8v-7.7c0-2.4-1.7-3.4-3.3-3.4
			c-1.5,0-2.7,0.9-4.2,2.9v7.2c0,2.2,0.3,2.8,2.5,2.8v0.7H196v-0.7c2,0,2.4-0.2,2.4-2.8v-8.3c0-1.8-0.5-2.2-2.4-2.2v-0.7l4.6-0.5
			h0.7V50c1.7-2,3.4-2.9,5.3-2.9c2.5,0,5,1.7,5,5.3V58.9L211.6,58.9z"/>
		<path class="st6" d="M227.9,52.2h-0.7c-0.6-2.7-2.5-4.4-4.9-4.4c-2.9,0-4.9,2.5-4.9,6.1c0,4,2.5,7.4,5.5,7.4c1.8,0,3.9-1,5.5-3.1
			v1.1c-1.6,2.2-3.8,3.2-6.5,3.2c-4.4,0-7.4-3-7.4-7.4c0-4.5,3.4-8.1,7.6-8.1c2.2,0,3.4,0.8,4.1,0.8c0.4,0,0.7-0.3,1-0.8h0.7V52.2
			L227.9,52.2z"/>
		<path class="st6" d="M238.4,58.7L241,51c0.6-1.7,0.5-2.7-1.2-2.8v-0.7h5.2v0.7c-1.6,0-2.5,1-3.4,3.4l-5.8,17.3
			c-1.2,3.4-3.1,5.3-4.9,5.3c-0.6,0-1.1-0.2-1.8-0.6l1-2.5c0.6,0.2,0.9,0.3,1.4,0.3c1.8,0,2.8-1,3.7-3.6l1.9-5.3l-5.3-12.1
			c-0.7-1.7-1.3-2.2-3-2.2v-0.7h7v0.7c-1.1,0.2-1.6,1-1,2.2L238.4,58.7L238.4,58.7z"/>
		<path class="st6" d="M160.1,33.4c-0.8,1.7-2.9,2.5-4,2.5c-1.6,0-3-1.6-3-3.6c0-4,3.3-3.9,7-5.5V33.4L160.1,33.4z M163.8,33.1
			l0-8.7c0-5.3-3.8-7.2-7.1-7.2c-3.5,0-6.4,2.4-7.3,6l1,0.3c0.8-2.8,3-4.2,5.2-4.2c2.8,0,4.4,2,4.4,4.8v1.4
			c-3.2,1.9-10.9,1.7-10.9,7.3c0,2.9,2.5,5.2,5.6,5.2c2.1,0,3.6-0.8,5.5-2.9l0,0v2.4h6.9v-1C164.4,36.4,163.8,35.6,163.8,33.1
			L163.8,33.1z"/>
		<path class="st6" d="M190.2,59.1c-0.6,1.2-2.1,1.8-3,1.8c-1.2,0-2.2-1.2-2.2-2.7c0-3,2.5-2.9,5.2-4.1V59.1L190.2,59.1z M193,58.9
			l0-6.4c0-3.9-2.8-5.3-5.3-5.3c-2.6,0-4.8,1.8-5.4,4.5l0.7,0.2c0.6-2.1,2.2-3.1,3.9-3.1c2.1,0,3.2,1.5,3.2,3.5v1.1
			c-2.4,1.4-8.1,1.2-8.1,5.4c0,2.1,1.9,3.9,4.1,3.9c1.5,0,2.6-0.6,4.1-2.2l0,0v1.7h5.1v-0.7C193.4,61.4,193,60.8,193,58.9L193,58.9z
			"/>
		<path class="st7" d="M172.7,88.2h3.8l-1.9-5.3L172.7,88.2L172.7,88.2z M173.3,80h2.8l5,13.4l-2.6,0.5l-1.3-3.6H172l-1.2,3.5h-2.6
			L173.3,80L173.3,80z"/>
		<path class="st7" d="M188.9,93.8l-0.2-1.4c-0.9,0.9-1.9,1.5-3.2,1.5c-1.8,0-2.7-1.1-2.7-2.9v-6.9h2.4v6.3c0,0.8,0.4,1.4,1.2,1.4
			c0.8,0,1.5-0.5,2.2-1.2v-6.5h2.4v9.6H188.9L188.9,93.8z"/>
		<path class="st7" d="M196.7,94c-1.4,0-2.8-0.4-3.7-0.9l0.3-2c1,0.7,2.3,1.1,3.5,1.1c1,0,1.6-0.4,1.6-1c0-0.7-0.4-1-1.9-1.3
			c-2.3-0.6-3.3-1.3-3.3-3c0-1.6,1.3-2.8,3.5-2.8c1.3,0,2.4,0.2,3.4,0.7l-0.3,2c-1-0.5-2.1-0.9-3-0.9c-0.9,0-1.3,0.3-1.3,0.9
			c0,0.5,0.4,0.8,1.8,1.2c2.5,0.6,3.5,1.3,3.5,3.1C200.5,92.9,199.2,94,196.7,94L196.7,94z"/>
		<path class="st7" d="M206.2,94c-1.9,0-3.2-0.7-3.2-2.9v-4.9h-1.4v-1.9h1.4v-3l2.3-0.4v3.4h2l0.3,1.9h-2.3v4.5
			c0,0.8,0.4,1.2,1.3,1.2c0.3,0,0.5,0,0.8-0.1l0.3,2C207.3,93.9,206.8,94,206.2,94L206.2,94z"/>
		<path class="st7" d="M211.9,88.3v5.5h-2.4v-9.6h2l0.3,1.9c0.6-1.1,1.6-2,3.1-2.1l0.4,2.4C213.8,86.5,212.6,87.3,211.9,88.3
			L211.9,88.3z"/>
		<path class="st7" d="M221.8,89c-2.8,0.3-3.4,1.2-3.4,2.1c0,0.7,0.4,1.1,1.2,1.1c0.8,0,1.6-0.4,2.2-1V89L221.8,89z M222.2,93.8
			l-0.2-1.3c-0.8,0.8-1.8,1.5-3.2,1.5c-1.6,0-2.7-1-2.7-2.7c0-2.3,1.9-3.3,5.8-3.7v-0.3c0-1-0.6-1.4-1.6-1.4c-1.1,0-2.2,0.3-3.2,0.8
			l-0.3-1.9c1.1-0.4,2.3-0.8,3.8-0.8c2.5,0,3.7,0.9,3.7,3.2v6.6H222.2L222.2,93.8z"/>
		<polygon class="st7" points="226.8,93.8 226.8,79.8 229.2,79.5 229.2,93.8 226.8,93.8 		"/>
		<path class="st7" d="M231.9,93.8v-9.6h2.4v9.6H231.9L231.9,93.8z M233.1,82.6c-0.8,0-1.4-0.6-1.4-1.4c0-0.8,0.6-1.4,1.4-1.4
			c0.8,0,1.4,0.6,1.4,1.4C234.5,82,233.9,82.6,233.1,82.6L233.1,82.6z"/>
		<path class="st7" d="M242.1,89c-2.8,0.3-3.4,1.2-3.4,2.1c0,0.7,0.4,1.1,1.2,1.1c0.8,0,1.6-0.4,2.2-1V89L242.1,89z M242.5,93.8
			l-0.2-1.3c-0.8,0.8-1.8,1.5-3.2,1.5c-1.6,0-2.7-1-2.7-2.7c0-2.3,1.9-3.3,5.8-3.7v-0.3c0-1-0.6-1.4-1.6-1.4c-1.1,0-2.2,0.3-3.2,0.8
			l-0.3-1.9c1.1-0.4,2.3-0.8,3.8-0.8c2.5,0,3.7,0.9,3.7,3.2v6.6H242.5L242.5,93.8z"/>
	</g>
</g>
</svg>
